<svg class="icon" style="width: 1em; height: 1em;vertical-align: middle;fill: currentColor;overflow: hidden;" viewBox="0 0 1024 1024" version="1.1" xmlns="http://www.w3.org/2000/svg" p-id="599"><path d="M1024 700.928V197.12C1024 88.064 935.936 0 826.88 0h-629.76C88.064 0 0 88.064 0 197.12v630.272C0 935.936 88.064 1024 197.12 1024h630.272c96.768 0 177.664-70.144 194.048-162.304-52.224-22.528-278.528-120.32-396.288-176.64-89.6 108.544-183.808 174.08-325.12 174.08s-236.032-87.04-224.768-194.048c7.68-70.144 55.808-184.832 264.192-164.864 110.08 10.24 160.256 30.72 250.368 60.416 23.04-42.496 42.496-89.6 56.832-139.264H248.32v-39.424h196.608V311.296H204.8v-43.52h240.128V165.888s2.048-15.872 19.968-15.872H563.2v118.272h256v43.52h-256v70.656h208.896c-18.944 78.336-48.128 150.016-84.48 212.48 60.416 21.504 336.384 105.984 336.384 105.984zM283.648 791.552c-149.504 0-173.056-94.72-165.376-134.144s51.2-90.624 134.656-90.624c95.744 0 181.248 24.576 284.16 74.24-72.704 94.72-161.28 150.528-253.44 150.528z" p-id="600"></path></svg>
